# xmcd CD database file
#
# Track frame offsets:
#	150
#	18494
#	29570
#	47057
#	62196
#	73482
#	85385
#	103571
#	116599
#	129281
#
# Disc length: 1963 seconds
#
# Revision: 0
# Processed by: cddbd v1.5.1PL0 Copyright (c) Steve Scherf et al.
# Submitted via: CDex 1.51
#
DISCID=8e07a90a
DTITLE=Nicole Dumont - Amoureuse
DYEAR=1900
DGENRE=Country
TTITLE0=L'écho
TTITLE1=Chaque jour
TTITLE2=Je t'aime
TTITLE3=Toi mon amour
TTITLE4=Belle inconnue
TTITLE5=Reconnaissance
TTITLE6=Seule dans la vie
TTITLE7=Être aimé
TTITLE8=Amoureuse
TTITLE9=Unis dans la vie
EXTD=
EXTT0=
EXTT1=
EXTT2=
EXTT3=
EXTT4=
EXTT5=
EXTT6=
EXTT7=
EXTT8=
EXTT9=
PLAYORDER=
